%TF.GenerationSoftware,KiCad,Pcbnew,8.0.8*%
%TF.CreationDate,2025-02-26T00:32:30+01:00*%
%TF.ProjectId,matrixSAO,6d617472-6978-4534-914f-2e6b69636164,rev?*%
%TF.SameCoordinates,Original*%
%TF.FileFunction,Paste,Top*%
%TF.FilePolarity,Positive*%
%FSLAX46Y46*%
G04 Gerber Fmt 4.6, Leading zero omitted, Abs format (unit mm)*
G04 Created by KiCad (PCBNEW 8.0.8) date 2025-02-26 00:32:30*
%MOMM*%
%LPD*%
G01*
G04 APERTURE LIST*
G04 Aperture macros list*
%AMRoundRect*
0 Rectangle with rounded corners*
0 $1 Rounding radius*
0 $2 $3 $4 $5 $6 $7 $8 $9 X,Y pos of 4 corners*
0 Add a 4 corners polygon primitive as box body*
4,1,4,$2,$3,$4,$5,$6,$7,$8,$9,$2,$3,0*
0 Add four circle primitives for the rounded corners*
1,1,$1+$1,$2,$3*
1,1,$1+$1,$4,$5*
1,1,$1+$1,$6,$7*
1,1,$1+$1,$8,$9*
0 Add four rect primitives between the rounded corners*
20,1,$1+$1,$2,$3,$4,$5,0*
20,1,$1+$1,$4,$5,$6,$7,0*
20,1,$1+$1,$6,$7,$8,$9,0*
20,1,$1+$1,$8,$9,$2,$3,0*%
G04 Aperture macros list end*
%ADD10RoundRect,0.147500X-0.017678X0.226274X-0.226274X0.017678X0.017678X-0.226274X0.226274X-0.017678X0*%
%ADD11RoundRect,0.125000X-0.035355X0.212132X-0.212132X0.035355X0.035355X-0.212132X0.212132X-0.035355X0*%
%ADD12RoundRect,0.167500X-0.167500X-0.167500X0.167500X-0.167500X0.167500X0.167500X-0.167500X0.167500X0*%
%ADD13RoundRect,0.050000X-0.375000X-0.050000X0.375000X-0.050000X0.375000X0.050000X-0.375000X0.050000X0*%
%ADD14RoundRect,0.050000X-0.050000X-0.375000X0.050000X-0.375000X0.050000X0.375000X-0.050000X0.375000X0*%
G04 APERTURE END LIST*
D10*
%TO.C,D59*%
X76842947Y-119157053D03*
X76157053Y-119842947D03*
%TD*%
%TO.C,D45*%
X75342947Y-119157053D03*
X74657053Y-119842947D03*
%TD*%
%TO.C,D61*%
X76842947Y-122157053D03*
X76157053Y-122842947D03*
%TD*%
%TO.C,D129*%
X84342947Y-119157053D03*
X83657053Y-119842947D03*
%TD*%
%TO.C,D15*%
X72342947Y-116157053D03*
X71657053Y-116842947D03*
%TD*%
%TO.C,D33*%
X73842947Y-122157053D03*
X73157053Y-122842947D03*
%TD*%
%TO.C,D103*%
X81342947Y-122157053D03*
X80657053Y-122842947D03*
%TD*%
%TO.C,D99*%
X81342947Y-116157053D03*
X80657053Y-116842947D03*
%TD*%
%TO.C,D48*%
X75342947Y-123657053D03*
X74657053Y-124342947D03*
%TD*%
%TO.C,D91*%
X79842947Y-125157053D03*
X79157053Y-125842947D03*
%TD*%
%TO.C,D21*%
X72342947Y-125157053D03*
X71657053Y-125842947D03*
%TD*%
%TO.C,D102*%
X81342947Y-120657053D03*
X80657053Y-121342947D03*
%TD*%
%TO.C,D113*%
X82842947Y-116157053D03*
X82157053Y-116842947D03*
%TD*%
%TO.C,D3*%
X70842947Y-119157053D03*
X70157053Y-119842947D03*
%TD*%
%TO.C,D20*%
X72342947Y-123657053D03*
X71657053Y-124342947D03*
%TD*%
%TO.C,D145*%
X85842947Y-122157053D03*
X85157053Y-122842947D03*
%TD*%
%TO.C,D44*%
X75342947Y-117657053D03*
X74657053Y-118342947D03*
%TD*%
%TO.C,D100*%
X81342947Y-117657053D03*
X80657053Y-118342947D03*
%TD*%
%TO.C,D29*%
X73842947Y-116157053D03*
X73157053Y-116842947D03*
%TD*%
%TO.C,D141*%
X85842947Y-116157053D03*
X85157053Y-116842947D03*
%TD*%
%TO.C,D77*%
X78342947Y-125157053D03*
X77657053Y-125842947D03*
%TD*%
%TO.C,D63*%
X76842947Y-125157053D03*
X76157053Y-125842947D03*
%TD*%
%TO.C,D87*%
X79842947Y-119157053D03*
X79157053Y-119842947D03*
%TD*%
%TO.C,D46*%
X75342947Y-120657053D03*
X74657053Y-121342947D03*
%TD*%
%TO.C,D104*%
X81342947Y-123657053D03*
X80657053Y-124342947D03*
%TD*%
%TO.C,D76*%
X78342947Y-123657053D03*
X77657053Y-124342947D03*
%TD*%
%TO.C,D72*%
X78342947Y-117657053D03*
X77657053Y-118342947D03*
%TD*%
%TO.C,D34*%
X73842947Y-123657053D03*
X73157053Y-124342947D03*
%TD*%
%TO.C,D89*%
X79842947Y-122157053D03*
X79157053Y-122842947D03*
%TD*%
%TO.C,D19*%
X72342947Y-122157053D03*
X71657053Y-122842947D03*
%TD*%
%TO.C,D146*%
X85842947Y-123657053D03*
X85157053Y-124342947D03*
%TD*%
%TO.C,D4*%
X70842947Y-120657053D03*
X70157053Y-121342947D03*
%TD*%
%TO.C,D43*%
X75342947Y-116157053D03*
X74657053Y-116842947D03*
%TD*%
%TO.C,D132*%
X84342947Y-123657053D03*
X83657053Y-124342947D03*
%TD*%
%TO.C,D6*%
X70842947Y-123657053D03*
X70157053Y-124342947D03*
%TD*%
%TO.C,D133*%
X84342947Y-125157053D03*
X83657053Y-125842947D03*
%TD*%
%TO.C,D49*%
X75342947Y-125157053D03*
X74657053Y-125842947D03*
%TD*%
%TO.C,D62*%
X76842947Y-123657053D03*
X76157053Y-124342947D03*
%TD*%
%TO.C,D30*%
X73842947Y-117657053D03*
X73157053Y-118342947D03*
%TD*%
%TO.C,D7*%
X70842947Y-125157053D03*
X70157053Y-125842947D03*
%TD*%
%TO.C,D16*%
X72342947Y-117657053D03*
X71657053Y-118342947D03*
%TD*%
%TO.C,D88*%
X79842947Y-120657053D03*
X79157053Y-121342947D03*
%TD*%
%TO.C,D144*%
X85842947Y-120657053D03*
X85157053Y-121342947D03*
%TD*%
D11*
%TO.C,C1*%
X72353553Y-128146447D03*
X71646447Y-128853553D03*
%TD*%
D10*
%TO.C,D1*%
X70842947Y-116157053D03*
X70157053Y-116842947D03*
%TD*%
%TO.C,D118*%
X82842947Y-123657053D03*
X82157053Y-124342947D03*
%TD*%
%TO.C,D47*%
X75342947Y-122157053D03*
X74657053Y-122842947D03*
%TD*%
%TO.C,D116*%
X82842947Y-120657053D03*
X82157053Y-121342947D03*
%TD*%
%TO.C,D17*%
X72342947Y-119157053D03*
X71657053Y-119842947D03*
%TD*%
%TO.C,D130*%
X84342947Y-120657053D03*
X83657053Y-121342947D03*
%TD*%
%TO.C,D117*%
X82842947Y-122157053D03*
X82157053Y-122842947D03*
%TD*%
%TO.C,D115*%
X82842947Y-119157053D03*
X82157053Y-119842947D03*
%TD*%
%TO.C,D18*%
X72342947Y-120657053D03*
X71657053Y-121342947D03*
%TD*%
%TO.C,D32*%
X73842947Y-120657053D03*
X73157053Y-121342947D03*
%TD*%
%TO.C,D101*%
X81342947Y-119157053D03*
X80657053Y-119842947D03*
%TD*%
%TO.C,D119*%
X82842947Y-125157053D03*
X82157053Y-125842947D03*
%TD*%
%TO.C,D86*%
X79842947Y-117657053D03*
X79157053Y-118342947D03*
%TD*%
%TO.C,D90*%
X79842947Y-123657053D03*
X79157053Y-124342947D03*
%TD*%
%TO.C,D143*%
X85842947Y-119157053D03*
X85157053Y-119842947D03*
%TD*%
%TO.C,D75*%
X78342947Y-122157053D03*
X77657053Y-122842947D03*
%TD*%
%TO.C,D57*%
X76842947Y-116157053D03*
X76157053Y-116842947D03*
%TD*%
D12*
%TO.C,U1*%
X83090000Y-128590000D03*
X83090000Y-129410000D03*
X83910000Y-128590000D03*
X83910000Y-129410000D03*
D13*
X82050000Y-128200000D03*
X82050000Y-128600000D03*
X82050000Y-129000000D03*
X82050000Y-129400000D03*
X82050000Y-129800000D03*
D14*
X82700000Y-130450000D03*
X83100000Y-130450000D03*
X83500000Y-130450000D03*
X83900000Y-130450000D03*
X84300000Y-130450000D03*
D13*
X84950000Y-129800000D03*
X84950000Y-129400000D03*
X84950000Y-129000000D03*
X84950000Y-128600000D03*
X84950000Y-128200000D03*
D14*
X84300000Y-127550000D03*
X83900000Y-127550000D03*
X83500000Y-127550000D03*
X83100000Y-127550000D03*
X82700000Y-127550000D03*
%TD*%
D10*
%TO.C,D31*%
X73842947Y-119157053D03*
X73157053Y-119842947D03*
%TD*%
%TO.C,D58*%
X76842947Y-117657053D03*
X76157053Y-118342947D03*
%TD*%
%TO.C,D5*%
X70842947Y-122157053D03*
X70157053Y-122842947D03*
%TD*%
%TO.C,D114*%
X82842947Y-117657053D03*
X82157053Y-118342947D03*
%TD*%
%TO.C,D71*%
X78342947Y-116157053D03*
X77657053Y-116842947D03*
%TD*%
%TO.C,D60*%
X76842947Y-120657053D03*
X76157053Y-121342947D03*
%TD*%
%TO.C,D128*%
X84342947Y-117657053D03*
X83657053Y-118342947D03*
%TD*%
%TO.C,D73*%
X78342947Y-119157053D03*
X77657053Y-119842947D03*
%TD*%
%TO.C,D105*%
X81342947Y-125157053D03*
X80657053Y-125842947D03*
%TD*%
D11*
%TO.C,C2*%
X72353553Y-126646447D03*
X71646447Y-127353553D03*
%TD*%
D10*
%TO.C,D147*%
X85842947Y-125157053D03*
X85157053Y-125842947D03*
%TD*%
%TO.C,D85*%
X79842947Y-116157053D03*
X79157053Y-116842947D03*
%TD*%
%TO.C,D127*%
X84342947Y-116157053D03*
X83657053Y-116842947D03*
%TD*%
%TO.C,D2*%
X70842947Y-117657053D03*
X70157053Y-118342947D03*
%TD*%
%TO.C,D35*%
X73842947Y-125157053D03*
X73157053Y-125842947D03*
%TD*%
%TO.C,D74*%
X78342947Y-120657053D03*
X77657053Y-121342947D03*
%TD*%
%TO.C,D131*%
X84342947Y-122157053D03*
X83657053Y-122842947D03*
%TD*%
%TO.C,D142*%
X85842947Y-117657053D03*
X85157053Y-118342947D03*
%TD*%
M02*
