M48
; DRILL file {KiCad 8.0.8} date 2025-02-26T00:32:30+0100
; FORMAT={-:-/ absolute / inch / decimal}
; #@! TF.CreationDate,2025-02-26T00:32:30+01:00
; #@! TF.GenerationSoftware,Kicad,Pcbnew,8.0.8
; #@! TF.FileFunction,Plated,1,2,PTH
FMAT,2
INCH
; #@! TA.AperFunction,Plated,PTH,ViaDrill
T1C0.0118
; #@! TA.AperFunction,Plated,PTH,ComponentDrill
T2C0.0394
%
G90
G05
T1
X2.7794Y-4.9844
X2.7874Y-5.1417
X2.7896Y-4.7218
X2.7902Y-4.8399
X2.7909Y-4.6036
X2.7953Y-5.0276
X2.7957Y-5.0783
X2.7992Y-5.187
X2.8071Y-4.9843
X2.813Y-5.1614
X2.8477Y-4.8989
X2.8497Y-4.6627
X2.8501Y-4.7808
X2.8563Y-5.1339
X2.8593Y-5.0177
X2.872Y-5.0984
X2.8784Y-4.6286
X2.8809Y-5.0374
X2.9089Y-4.8399
X2.9092Y-4.7217
X2.9102Y-4.9616
X2.9107Y-4.602
X2.9134Y-5.0236
X2.9134Y-5.1417
X2.9272Y-5.0984
X2.9311Y-5.1732
X2.9664Y-4.899
X2.9678Y-4.6627
X2.9682Y-4.7808
X2.9974Y-4.6286
X3.0236Y-5.0906
X3.0256Y-5.187
X3.0268Y-4.8399
X3.0273Y-4.7217
X3.0283Y-4.9616
X3.029Y-4.6021
X3.0855Y-4.899
X3.0859Y-4.6627
X3.0861Y-4.7808
X3.0925Y-5.187
X3.1146Y-4.6286
X3.1407Y-5.0924
X3.1449Y-4.8399
X3.1452Y-4.7218
X3.1468Y-4.9626
X3.1471Y-4.6021
X3.2042Y-4.6627
X3.2043Y-4.7808
X3.2043Y-4.8989
X3.2224Y-5.1547
X3.2319Y-5.1309
X3.2327Y-4.6286
X3.2632Y-4.7218
X3.2636Y-4.8401
X3.2638Y-4.9594
X3.2651Y-4.6021
X3.2677Y-5.0591
X3.2835Y-5.1693
X3.2894Y-5.0984
X3.2916Y-4.8058
X3.3071Y-5.0787
X3.3091Y-5.1693
X3.3221Y-4.6627
X3.3224Y-4.8989
X3.3227Y-4.5931
X3.3297Y-4.9857
X3.3327Y-5.1831
X3.3445Y-5.1594
X3.3465Y-5.1299
X3.3508Y-4.6286
X3.3511Y-4.7467
X3.3511Y-4.6877
X3.3515Y-4.8648
X3.3526Y-4.8048
X3.374Y-5.0945
X3.374Y-5.1201
T2
X2.9709Y-5.0354
X2.9709Y-5.1354
X3.0709Y-5.0354
X3.0709Y-5.1354
X3.1709Y-5.0354
X3.1709Y-5.1354
M30
